<?xml version="1.0" encoding="UTF-8"?>
<svg viewBox="0 0 50 50" version="1.1" xmlns="http://www.w3.org/2000/svg" xmlns:xlink="http://www.w3.org/1999/xlink">
    <!-- Generator: Sketch 51.2 (57519) - http://www.bohemiancoding.com/sketch -->
    <title>Shape</title>
    <desc>Created with Sketch.</desc>
    <defs></defs>
    <g id="Symbols" stroke="none" stroke-width="1" fill="none" fill-rule="evenodd">
        <g id="medium" transform="translate(0.000000, -5.000000)" fill="#FFFFFF" fill-rule="nonzero">
            <g transform="translate(0.000000, 5.000000)" id="Shape">
                <path d="M5.93041645,8.16489362 C5.98313126,7.55319149 5.7459146,6.94148936 5.29783869,6.51595745 L0.632577754,0.85106383 L0.632577754,0 L15.1291513,0 L26.331049,24.787234 L36.188719,9.44870659e-16 L50,0 L50,0.85106383 L46.0200316,4.70744681 C45.6773853,4.97340426 45.4928835,5.39893617 45.5719557,5.82446809 L45.5719557,34.1755319 C45.4928835,34.6010638 45.6773853,35.0531915 46.0200316,35.2925532 L49.9209278,39.1489362 L49.9209278,40 L30.3110174,40 L30.3110174,39.1489362 L34.3437006,35.1861702 C34.7390617,34.787234 34.7390617,34.6808511 34.7390617,34.0691489 L34.7390617,11.1968085 L23.4844491,39.9468085 L21.9557196,39.9468085 L8.90880337,11.1968085 L8.90880337,30.4787234 C8.80337375,31.2765957 9.06694781,32.1010638 9.62045335,32.6861702 L14.8655772,39.1223404 L14.8655772,39.9734043 L0,39.9734043 L0,39.1223404 L5.24512388,32.6861702 C5.79862941,32.1010638 6.06220348,31.2765957 5.93041645,30.4787234 L5.93041645,8.16489362 Z"></path>
            </g>
        </g>
    </g>
</svg>
